<svg width="201" height="36" viewBox="0 0 201 36" fill="none" xmlns="http://www.w3.org/2000/svg">
<path d="M89.925 18.346C89.925 19.0653 89.834 19.7197 89.652 20.309C89.4787 20.8897 89.21 21.3923 88.846 21.817C88.4907 22.2417 88.04 22.5667 87.494 22.792C86.9567 23.0173 86.3283 23.13 85.609 23.13C84.8723 23.13 84.231 23.0173 83.685 22.792C83.1477 22.558 82.697 22.233 82.333 21.817C81.9777 21.3923 81.7133 20.8853 81.54 20.296C81.3667 19.7067 81.28 19.0523 81.28 18.333C81.28 17.3797 81.436 16.5477 81.748 15.837C82.06 15.1263 82.5367 14.5717 83.178 14.173C83.828 13.7743 84.6427 13.575 85.622 13.575C86.5753 13.575 87.3683 13.7743 88.001 14.173C88.6423 14.563 89.1233 15.1177 89.444 15.837C89.7647 16.5477 89.925 17.384 89.925 18.346ZM82.762 18.346C82.762 19.0913 82.8617 19.7327 83.061 20.27C83.2603 20.7987 83.5723 21.2103 83.997 21.505C84.4217 21.791 84.959 21.934 85.609 21.934C86.2677 21.934 86.805 21.791 87.221 21.505C87.637 21.2103 87.9447 20.7987 88.144 20.27C88.3433 19.7327 88.443 19.0913 88.443 18.346C88.443 17.228 88.2177 16.357 87.767 15.733C87.325 15.1003 86.61 14.784 85.622 14.784C84.9633 14.784 84.4217 14.927 83.997 15.213C83.5723 15.499 83.2603 15.9063 83.061 16.435C82.8617 16.9637 82.762 17.6007 82.762 18.346ZM91.196 18.801C91.196 17.7697 91.3044 16.8943 91.521 16.175C91.7464 15.4557 92.093 14.8837 92.561 14.459C93.029 14.0257 93.6357 13.731 94.381 13.575C94.9184 13.471 95.4427 13.3757 95.954 13.289C96.474 13.2023 96.9767 13.1243 97.462 13.055L97.657 14.264C97.4404 14.29 97.1934 14.3247 96.916 14.368C96.6474 14.4113 96.37 14.4547 96.084 14.498C95.8067 14.5413 95.538 14.5847 95.278 14.628C95.0267 14.6713 94.8014 14.7147 94.602 14.758C94.2987 14.81 94.03 14.901 93.796 15.031C93.5707 15.161 93.3757 15.3343 93.211 15.551C93.055 15.7677 92.9294 16.045 92.834 16.383C92.7387 16.7123 92.6824 17.1153 92.665 17.592H92.743C92.8644 17.4273 93.0247 17.2583 93.224 17.085C93.432 16.9117 93.679 16.7687 93.965 16.656C94.2597 16.5347 94.5977 16.474 94.979 16.474C95.5684 16.474 96.0667 16.604 96.474 16.864C96.8814 17.1153 97.189 17.475 97.397 17.943C97.605 18.4023 97.709 18.9527 97.709 19.594C97.709 20.3827 97.5704 21.0413 97.293 21.57C97.0244 22.09 96.643 22.48 96.149 22.74C95.6637 23 95.096 23.13 94.446 23.13C93.952 23.13 93.5057 23.039 93.107 22.857C92.7084 22.6663 92.366 22.389 92.08 22.025C91.794 21.6523 91.573 21.1973 91.417 20.66C91.2697 20.1227 91.196 19.503 91.196 18.801ZM94.55 21.999C94.8967 21.999 95.2 21.9253 95.46 21.778C95.72 21.6307 95.9194 21.3923 96.058 21.063C96.2054 20.7337 96.279 20.2917 96.279 19.737C96.279 19.0697 96.1577 18.541 95.915 18.151C95.6724 17.761 95.2694 17.566 94.706 17.566C94.3594 17.566 94.0387 17.6483 93.744 17.813C93.458 17.969 93.2154 18.1467 93.016 18.346C92.8254 18.5453 92.691 18.7143 92.613 18.853C92.613 19.2603 92.639 19.6503 92.691 20.023C92.7517 20.3957 92.8514 20.7293 92.99 21.024C93.1374 21.3187 93.3367 21.557 93.588 21.739C93.8394 21.9123 94.16 21.999 94.55 21.999ZM101.324 15.863C101.844 15.863 102.307 15.9323 102.715 16.071C103.122 16.2097 103.443 16.4177 103.677 16.695C103.911 16.9723 104.028 17.3103 104.028 17.709C104.028 18.1337 103.906 18.4717 103.664 18.723C103.43 18.9743 103.105 19.1563 102.689 19.269V19.321C102.975 19.399 103.235 19.5073 103.469 19.646C103.703 19.776 103.889 19.9537 104.028 20.179C104.175 20.3957 104.249 20.6817 104.249 21.037C104.249 21.4183 104.136 21.7693 103.911 22.09C103.694 22.4107 103.356 22.6663 102.897 22.857C102.437 23.039 101.844 23.13 101.116 23.13C100.778 23.13 100.453 23.1127 100.141 23.078C99.8288 23.0433 99.5472 22.9913 99.2958 22.922C99.0445 22.8527 98.8235 22.7703 98.6328 22.675V21.479C98.9275 21.6177 99.2785 21.7433 99.6858 21.856C100.102 21.9687 100.552 22.025 101.038 22.025C101.384 22.025 101.696 21.9903 101.974 21.921C102.26 21.8517 102.485 21.739 102.65 21.583C102.814 21.427 102.897 21.219 102.897 20.959C102.897 20.7077 102.823 20.504 102.676 20.348C102.528 20.192 102.307 20.075 102.013 19.997C101.727 19.919 101.358 19.88 100.908 19.88H100.024V18.827H100.765C101.371 18.827 101.852 18.7577 102.208 18.619C102.572 18.4717 102.754 18.216 102.754 17.852C102.754 17.5573 102.624 17.3363 102.364 17.189C102.104 17.033 101.718 16.955 101.207 16.955C100.834 16.955 100.487 16.994 100.167 17.072C99.8462 17.1413 99.5125 17.2497 99.1658 17.397L98.7108 16.357C99.0922 16.201 99.4952 16.0797 99.9198 15.993C100.353 15.9063 100.821 15.863 101.324 15.863ZM111.859 19.49C111.859 20.0707 111.781 20.5863 111.625 21.037C111.469 21.4877 111.248 21.869 110.962 22.181C110.676 22.493 110.329 22.7313 109.922 22.896C109.515 23.052 109.055 23.13 108.544 23.13C108.076 23.13 107.643 23.052 107.244 22.896C106.845 22.7313 106.499 22.493 106.204 22.181C105.918 21.869 105.693 21.4877 105.528 21.037C105.363 20.5863 105.281 20.0663 105.281 19.477C105.281 18.7057 105.411 18.0513 105.671 17.514C105.94 16.9767 106.321 16.5693 106.815 16.292C107.318 16.006 107.907 15.863 108.583 15.863C109.224 15.863 109.788 16.006 110.273 16.292C110.767 16.5693 111.153 16.9767 111.43 17.514C111.716 18.0513 111.859 18.71 111.859 19.49ZM106.698 19.49C106.698 20.01 106.763 20.4607 106.893 20.842C107.023 21.2147 107.227 21.5007 107.504 21.7C107.781 21.8993 108.137 21.999 108.57 21.999C109.003 21.999 109.359 21.8993 109.636 21.7C109.913 21.5007 110.117 21.2147 110.247 20.842C110.377 20.4607 110.442 20.01 110.442 19.49C110.442 18.9527 110.373 18.502 110.234 18.138C110.104 17.774 109.9 17.4967 109.623 17.306C109.354 17.1067 108.999 17.007 108.557 17.007C107.907 17.007 107.435 17.2237 107.14 17.657C106.845 18.0903 106.698 18.7013 106.698 19.49ZM116.903 15.863C117.744 15.863 118.42 16.1663 118.931 16.773C119.451 17.3797 119.711 18.2853 119.711 19.49C119.711 20.2787 119.594 20.946 119.36 21.492C119.126 22.038 118.797 22.4497 118.372 22.727C117.947 22.9957 117.453 23.13 116.89 23.13C116.535 23.13 116.223 23.0867 115.954 23C115.685 22.9047 115.456 22.7833 115.265 22.636C115.083 22.48 114.923 22.3153 114.784 22.142H114.693C114.719 22.298 114.741 22.4843 114.758 22.701C114.775 22.909 114.784 23.0953 114.784 23.26V26.12H113.406V15.993H114.524L114.719 16.929H114.784C114.923 16.7383 115.087 16.5607 115.278 16.396C115.469 16.2313 115.698 16.1013 115.967 16.006C116.236 15.9107 116.548 15.863 116.903 15.863ZM116.578 16.994C116.145 16.994 115.798 17.0807 115.538 17.254C115.278 17.4187 115.087 17.67 114.966 18.008C114.853 18.3373 114.793 18.7577 114.784 19.269V19.477C114.784 20.0143 114.84 20.4737 114.953 20.855C115.066 21.2277 115.252 21.5137 115.512 21.713C115.781 21.9037 116.145 21.999 116.604 21.999C116.994 21.999 117.31 21.895 117.553 21.687C117.804 21.4703 117.991 21.1713 118.112 20.79C118.233 20.4087 118.294 19.9667 118.294 19.464C118.294 18.7013 118.155 18.099 117.878 17.657C117.601 17.215 117.167 16.994 116.578 16.994Z" fill="#19191C"/>
</svg>
