<svg width="201" height="36" viewBox="0 0 201 36" fill="none" xmlns="http://www.w3.org/2000/svg">
<rect width="201" height="36" rx="18" fill="black"/>
<path d="M41.925 18.346C41.925 19.0653 41.834 19.7197 41.652 20.309C41.4787 20.8897 41.21 21.3923 40.846 21.817C40.4907 22.2417 40.04 22.5667 39.494 22.792C38.9567 23.0173 38.3283 23.13 37.609 23.13C36.8723 23.13 36.231 23.0173 35.685 22.792C35.1477 22.558 34.697 22.233 34.333 21.817C33.9777 21.3923 33.7133 20.8853 33.54 20.296C33.3667 19.7067 33.28 19.0523 33.28 18.333C33.28 17.3797 33.436 16.5477 33.748 15.837C34.06 15.1263 34.5367 14.5717 35.178 14.173C35.828 13.7743 36.6427 13.575 37.622 13.575C38.5753 13.575 39.3683 13.7743 40.001 14.173C40.6423 14.563 41.1233 15.1177 41.444 15.837C41.7647 16.5477 41.925 17.384 41.925 18.346ZM34.762 18.346C34.762 19.0913 34.8617 19.7327 35.061 20.27C35.2603 20.7987 35.5723 21.2103 35.997 21.505C36.4217 21.791 36.959 21.934 37.609 21.934C38.2677 21.934 38.805 21.791 39.221 21.505C39.637 21.2103 39.9447 20.7987 40.144 20.27C40.3433 19.7327 40.443 19.0913 40.443 18.346C40.443 17.228 40.2177 16.357 39.767 15.733C39.325 15.1003 38.61 14.784 37.622 14.784C36.9633 14.784 36.4217 14.927 35.997 15.213C35.5723 15.499 35.2603 15.9063 35.061 16.435C34.8617 16.9637 34.762 17.6007 34.762 18.346ZM49.644 15.993V23H48.266V17.111H44.964V23H43.586V15.993H49.644ZM57.2159 23H55.8249V17.098H53.8489C53.7622 18.1727 53.6539 19.0957 53.5239 19.867C53.4026 20.6297 53.2422 21.2493 53.0429 21.726C52.8522 22.2027 52.6139 22.5537 52.3279 22.779C52.0506 22.9957 51.7169 23.104 51.3269 23.104C51.1882 23.104 51.0539 23.091 50.9239 23.065C50.7939 23.0477 50.6812 23.0173 50.5859 22.974V21.921C50.6466 21.9383 50.7116 21.9557 50.7809 21.973C50.8589 21.9817 50.9369 21.986 51.0149 21.986C51.1882 21.986 51.3442 21.9167 51.4829 21.778C51.6302 21.6393 51.7602 21.4227 51.8729 21.128C51.9942 20.8333 52.1026 20.452 52.1979 19.984C52.3019 19.5073 52.3886 18.9397 52.4579 18.281C52.5359 17.6223 52.6052 16.8597 52.6659 15.993H57.2159V23ZM61.8864 15.863C62.7704 15.863 63.4291 16.058 63.8624 16.448C64.2958 16.8293 64.5124 17.4317 64.5124 18.255V23H63.5374L63.2644 22.025H63.2124C63.0131 22.2763 62.8051 22.4843 62.5884 22.649C62.3804 22.8137 62.1378 22.935 61.8604 23.013C61.5918 23.091 61.2624 23.13 60.8724 23.13C60.4564 23.13 60.0794 23.0563 59.7414 22.909C59.4121 22.753 59.1521 22.519 58.9614 22.207C58.7708 21.8863 58.6754 21.4877 58.6754 21.011C58.6754 20.3003 58.9441 19.7587 59.4814 19.386C60.0274 19.0133 60.8551 18.8097 61.9644 18.775L63.1604 18.736V18.346C63.1604 17.826 63.0434 17.462 62.8094 17.254C62.5754 17.046 62.2461 16.942 61.8214 16.942C61.4574 16.942 61.1108 16.994 60.7814 17.098C60.4521 17.202 60.1401 17.3277 59.8454 17.475L59.4034 16.474C59.7328 16.3007 60.1098 16.1577 60.5344 16.045C60.9678 15.9237 61.4184 15.863 61.8864 15.863ZM62.2114 19.659C61.4141 19.6937 60.8594 19.828 60.5474 20.062C60.2441 20.2873 60.0924 20.608 60.0924 21.024C60.0924 21.388 60.2008 21.6523 60.4174 21.817C60.6428 21.9817 60.9244 22.064 61.2624 22.064C61.8084 22.064 62.2591 21.9123 62.6144 21.609C62.9698 21.3057 63.1474 20.8507 63.1474 20.244V19.633L62.2114 19.659ZM71.5563 17.098H69.2683V23H67.9033V17.098H65.6283V15.993H71.5563V17.098ZM72.7216 23V15.993H74.0996V18.814H75.6466C76.2879 18.814 76.8166 18.892 77.2326 19.048C77.6486 19.1953 77.9562 19.4163 78.1556 19.711C78.3549 20.0057 78.4546 20.3783 78.4546 20.829C78.4546 21.271 78.3549 21.6567 78.1556 21.986C77.9649 22.3067 77.6616 22.558 77.2456 22.74C76.8382 22.9133 76.3009 23 75.6336 23H72.7216ZM75.5296 21.96C75.9889 21.96 76.3616 21.882 76.6476 21.726C76.9422 21.5613 77.0896 21.2797 77.0896 20.881C77.0896 20.4997 76.9552 20.2397 76.6866 20.101C76.4179 19.9537 76.0322 19.88 75.5296 19.88H74.0996V21.96H75.5296ZM79.5726 23V15.993H80.9506V23H79.5726ZM87.3963 19.815C87.3963 19.919 87.392 20.0533 87.3833 20.218C87.3746 20.3827 87.366 20.556 87.3573 20.738C87.3486 20.9113 87.3356 21.076 87.3183 21.232C87.3096 21.3793 87.301 21.4963 87.2923 21.583L90.8933 15.993H92.5703V23H91.2703V19.269C91.2703 19.1043 91.2746 18.9007 91.2833 18.658C91.292 18.4153 91.3006 18.1813 91.3093 17.956C91.3266 17.722 91.3396 17.5443 91.3483 17.423L87.7733 23H86.0833V15.993H87.3963V19.815ZM103.243 15.993V21.908H104.27V25.457H102.983V23H98.1475V25.457H96.8735V21.908H97.4325C97.8051 21.3707 98.1171 20.7813 98.3685 20.14C98.6198 19.4987 98.8105 18.827 98.9405 18.125C99.0791 17.4143 99.1615 16.7037 99.1875 15.993H103.243ZM100.383 17.059C100.331 17.6223 100.236 18.1987 100.097 18.788C99.9675 19.3773 99.7985 19.9407 99.5905 20.478C99.3911 21.0153 99.1528 21.492 98.8755 21.908H101.891V17.059H100.383ZM111.565 19.49C111.565 20.0707 111.487 20.5863 111.331 21.037C111.175 21.4877 110.954 21.869 110.668 22.181C110.382 22.493 110.035 22.7313 109.628 22.896C109.22 23.052 108.761 23.13 108.25 23.13C107.782 23.13 107.348 23.052 106.95 22.896C106.551 22.7313 106.204 22.493 105.91 22.181C105.624 21.869 105.398 21.4877 105.234 21.037C105.069 20.5863 104.987 20.0663 104.987 19.477C104.987 18.7057 105.117 18.0513 105.377 17.514C105.645 16.9767 106.027 16.5693 106.521 16.292C107.023 16.006 107.613 15.863 108.289 15.863C108.93 15.863 109.493 16.006 109.979 16.292C110.473 16.5693 110.858 16.9767 111.136 17.514C111.422 18.0513 111.565 18.71 111.565 19.49ZM106.404 19.49C106.404 20.01 106.469 20.4607 106.599 20.842C106.729 21.2147 106.932 21.5007 107.21 21.7C107.487 21.8993 107.842 21.999 108.276 21.999C108.709 21.999 109.064 21.8993 109.342 21.7C109.619 21.5007 109.823 21.2147 109.953 20.842C110.083 20.4607 110.148 20.01 110.148 19.49C110.148 18.9527 110.078 18.502 109.94 18.138C109.81 17.774 109.606 17.4967 109.329 17.306C109.06 17.1067 108.705 17.007 108.263 17.007C107.613 17.007 107.14 17.2237 106.846 17.657C106.551 18.0903 106.404 18.7013 106.404 19.49ZM117.388 15.993H118.896L115.971 19.36L119.143 23H117.557L114.489 19.451V23H113.111V15.993H114.489V19.399L117.388 15.993ZM119.069 15.993H120.551L122.007 19.971C122.085 20.1703 122.154 20.3653 122.215 20.556C122.276 20.7467 122.328 20.9373 122.371 21.128C122.423 21.31 122.462 21.492 122.488 21.674H122.54C122.583 21.4487 122.653 21.1843 122.748 20.881C122.843 20.569 122.943 20.2613 123.047 19.958L124.425 15.993H125.907L122.904 23.949C122.739 24.3997 122.536 24.7853 122.293 25.106C122.05 25.4353 121.76 25.6867 121.422 25.86C121.093 26.0333 120.703 26.12 120.252 26.12C120.035 26.12 119.849 26.107 119.693 26.081C119.537 26.0637 119.403 26.042 119.29 26.016V24.924C119.385 24.9413 119.498 24.9587 119.628 24.976C119.767 24.9933 119.91 25.002 120.057 25.002C120.326 25.002 120.555 24.95 120.746 24.846C120.945 24.742 121.11 24.5947 121.24 24.404C121.379 24.2133 121.496 23.9967 121.591 23.754L121.877 23L119.069 15.993ZM134.695 15.993V23H133.447V18.84C133.447 18.606 133.451 18.372 133.46 18.138C133.477 17.8953 133.494 17.6657 133.512 17.449H133.473L131.289 23H130.184L128.039 17.449H127.987C128.013 17.6657 128.03 17.8953 128.039 18.138C128.047 18.372 128.052 18.619 128.052 18.879V23H126.791V15.993H128.676L130.743 21.362L132.849 15.993H134.695ZM139.427 15.863C140.042 15.863 140.571 15.993 141.013 16.253C141.455 16.5043 141.793 16.8683 142.027 17.345C142.269 17.8217 142.391 18.385 142.391 19.035V19.789H137.685C137.702 20.5083 137.888 21.0587 138.244 21.44C138.608 21.8213 139.115 22.012 139.765 22.012C140.215 22.012 140.614 21.973 140.961 21.895C141.316 21.8083 141.68 21.6827 142.053 21.518V22.662C141.706 22.818 141.351 22.935 140.987 23.013C140.631 23.091 140.207 23.13 139.713 23.13C139.037 23.13 138.439 22.9957 137.919 22.727C137.399 22.4583 136.991 22.0597 136.697 21.531C136.411 20.9937 136.268 20.335 136.268 19.555C136.268 18.7663 136.398 18.099 136.658 17.553C136.926 17.007 137.295 16.591 137.763 16.305C138.239 16.0103 138.794 15.863 139.427 15.863ZM139.427 16.929C138.933 16.929 138.534 17.0893 138.231 17.41C137.936 17.7307 137.763 18.1857 137.711 18.775H141.013C141.013 18.411 140.956 18.0903 140.844 17.813C140.731 17.5357 140.558 17.319 140.324 17.163C140.09 17.007 139.791 16.929 139.427 16.929ZM145.288 15.993V18.84H148.746V15.993H150.124V23H148.746V19.945H145.288V23H143.91V15.993H145.288ZM157.198 17.098H154.91V23H153.545V17.098H151.27V15.993H157.198V17.098ZM158.364 23V15.993H159.742V18.814H161.289C161.93 18.814 162.459 18.892 162.875 19.048C163.291 19.1953 163.598 19.4163 163.798 19.711C163.997 20.0057 164.097 20.3783 164.097 20.829C164.097 21.271 163.997 21.6567 163.798 21.986C163.607 22.3067 163.304 22.558 162.888 22.74C162.48 22.9133 161.943 23 161.276 23H158.364ZM161.172 21.96C161.631 21.96 162.004 21.882 162.29 21.726C162.584 21.5613 162.732 21.2797 162.732 20.881C162.732 20.4997 162.597 20.2397 162.329 20.101C162.06 19.9537 161.674 19.88 161.172 19.88H159.742V21.96H161.172ZM165.215 23V15.993H166.593V23H165.215Z" fill="white"/>
</svg>
