<svg width="812" height="44" viewBox="0 0 812 44" fill="none" xmlns="http://www.w3.org/2000/svg">
<rect width="812" height="44" rx="22" fill="#F6F6F6"/>
<path d="M93.925 22.346C93.925 23.0653 93.834 23.7197 93.652 24.309C93.4787 24.8897 93.21 25.3923 92.846 25.817C92.4907 26.2417 92.04 26.5667 91.494 26.792C90.9567 27.0173 90.3283 27.13 89.609 27.13C88.8723 27.13 88.231 27.0173 87.685 26.792C87.1477 26.558 86.697 26.233 86.333 25.817C85.9777 25.3923 85.7133 24.8853 85.54 24.296C85.3667 23.7067 85.28 23.0523 85.28 22.333C85.28 21.3797 85.436 20.5477 85.748 19.837C86.06 19.1263 86.5367 18.5717 87.178 18.173C87.828 17.7743 88.6427 17.575 89.622 17.575C90.5753 17.575 91.3683 17.7743 92.001 18.173C92.6423 18.563 93.1233 19.1177 93.444 19.837C93.7647 20.5477 93.925 21.384 93.925 22.346ZM86.762 22.346C86.762 23.0913 86.8617 23.7327 87.061 24.27C87.2603 24.7987 87.5723 25.2103 87.997 25.505C88.4217 25.791 88.959 25.934 89.609 25.934C90.2677 25.934 90.805 25.791 91.221 25.505C91.637 25.2103 91.9447 24.7987 92.144 24.27C92.3433 23.7327 92.443 23.0913 92.443 22.346C92.443 21.228 92.2177 20.357 91.767 19.733C91.325 19.1003 90.61 18.784 89.622 18.784C88.9633 18.784 88.4217 18.927 87.997 19.213C87.5723 19.499 87.2603 19.9063 87.061 20.435C86.8617 20.9637 86.762 21.6007 86.762 22.346ZM95.196 22.801C95.196 21.7697 95.3044 20.8943 95.521 20.175C95.7464 19.4557 96.093 18.8837 96.561 18.459C97.029 18.0257 97.6357 17.731 98.381 17.575C98.9184 17.471 99.4427 17.3757 99.954 17.289C100.474 17.2023 100.977 17.1243 101.462 17.055L101.657 18.264C101.44 18.29 101.193 18.3247 100.916 18.368C100.647 18.4113 100.37 18.4547 100.084 18.498C99.8067 18.5413 99.538 18.5847 99.278 18.628C99.0267 18.6713 98.8014 18.7147 98.602 18.758C98.2987 18.81 98.03 18.901 97.796 19.031C97.5707 19.161 97.3757 19.3343 97.211 19.551C97.055 19.7677 96.9294 20.045 96.834 20.383C96.7387 20.7123 96.6824 21.1153 96.665 21.592H96.743C96.8644 21.4273 97.0247 21.2583 97.224 21.085C97.432 20.9117 97.679 20.7687 97.965 20.656C98.2597 20.5347 98.5977 20.474 98.979 20.474C99.5684 20.474 100.067 20.604 100.474 20.864C100.881 21.1153 101.189 21.475 101.397 21.943C101.605 22.4023 101.709 22.9527 101.709 23.594C101.709 24.3827 101.57 25.0413 101.293 25.57C101.024 26.09 100.643 26.48 100.149 26.74C99.6637 27 99.096 27.13 98.446 27.13C97.952 27.13 97.5057 27.039 97.107 26.857C96.7084 26.6663 96.366 26.389 96.08 26.025C95.794 25.6523 95.573 25.1973 95.417 24.66C95.2697 24.1227 95.196 23.503 95.196 22.801ZM98.55 25.999C98.8967 25.999 99.2 25.9253 99.46 25.778C99.72 25.6307 99.9194 25.3923 100.058 25.063C100.205 24.7337 100.279 24.2917 100.279 23.737C100.279 23.0697 100.158 22.541 99.915 22.151C99.6724 21.761 99.2694 21.566 98.706 21.566C98.3594 21.566 98.0387 21.6483 97.744 21.813C97.458 21.969 97.2154 22.1467 97.016 22.346C96.8254 22.5453 96.691 22.7143 96.613 22.853C96.613 23.2603 96.639 23.6503 96.691 24.023C96.7517 24.3957 96.8514 24.7293 96.99 25.024C97.1374 25.3187 97.3367 25.557 97.588 25.739C97.8394 25.9123 98.16 25.999 98.55 25.999ZM105.324 19.863C105.844 19.863 106.307 19.9323 106.715 20.071C107.122 20.2097 107.443 20.4177 107.677 20.695C107.911 20.9723 108.028 21.3103 108.028 21.709C108.028 22.1337 107.906 22.4717 107.664 22.723C107.43 22.9743 107.105 23.1563 106.689 23.269V23.321C106.975 23.399 107.235 23.5073 107.469 23.646C107.703 23.776 107.889 23.9537 108.028 24.179C108.175 24.3957 108.249 24.6817 108.249 25.037C108.249 25.4183 108.136 25.7693 107.911 26.09C107.694 26.4107 107.356 26.6663 106.897 26.857C106.437 27.039 105.844 27.13 105.116 27.13C104.778 27.13 104.453 27.1127 104.141 27.078C103.829 27.0433 103.547 26.9913 103.296 26.922C103.044 26.8527 102.823 26.7703 102.633 26.675V25.479C102.927 25.6177 103.278 25.7433 103.686 25.856C104.102 25.9687 104.552 26.025 105.038 26.025C105.384 26.025 105.696 25.9903 105.974 25.921C106.26 25.8517 106.485 25.739 106.65 25.583C106.814 25.427 106.897 25.219 106.897 24.959C106.897 24.7077 106.823 24.504 106.676 24.348C106.528 24.192 106.307 24.075 106.013 23.997C105.727 23.919 105.358 23.88 104.908 23.88H104.024V22.827H104.765C105.371 22.827 105.852 22.7577 106.208 22.619C106.572 22.4717 106.754 22.216 106.754 21.852C106.754 21.5573 106.624 21.3363 106.364 21.189C106.104 21.033 105.718 20.955 105.207 20.955C104.834 20.955 104.487 20.994 104.167 21.072C103.846 21.1413 103.512 21.2497 103.166 21.397L102.711 20.357C103.092 20.201 103.495 20.0797 103.92 19.993C104.353 19.9063 104.821 19.863 105.324 19.863ZM115.859 23.49C115.859 24.0707 115.781 24.5863 115.625 25.037C115.469 25.4877 115.248 25.869 114.962 26.181C114.676 26.493 114.329 26.7313 113.922 26.896C113.515 27.052 113.055 27.13 112.544 27.13C112.076 27.13 111.643 27.052 111.244 26.896C110.845 26.7313 110.499 26.493 110.204 26.181C109.918 25.869 109.693 25.4877 109.528 25.037C109.363 24.5863 109.281 24.0663 109.281 23.477C109.281 22.7057 109.411 22.0513 109.671 21.514C109.94 20.9767 110.321 20.5693 110.815 20.292C111.318 20.006 111.907 19.863 112.583 19.863C113.224 19.863 113.788 20.006 114.273 20.292C114.767 20.5693 115.153 20.9767 115.43 21.514C115.716 22.0513 115.859 22.71 115.859 23.49ZM110.698 23.49C110.698 24.01 110.763 24.4607 110.893 24.842C111.023 25.2147 111.227 25.5007 111.504 25.7C111.781 25.8993 112.137 25.999 112.57 25.999C113.003 25.999 113.359 25.8993 113.636 25.7C113.913 25.5007 114.117 25.2147 114.247 24.842C114.377 24.4607 114.442 24.01 114.442 23.49C114.442 22.9527 114.373 22.502 114.234 22.138C114.104 21.774 113.9 21.4967 113.623 21.306C113.354 21.1067 112.999 21.007 112.557 21.007C111.907 21.007 111.435 21.2237 111.14 21.657C110.845 22.0903 110.698 22.7013 110.698 23.49ZM120.903 19.863C121.744 19.863 122.42 20.1663 122.931 20.773C123.451 21.3797 123.711 22.2853 123.711 23.49C123.711 24.2787 123.594 24.946 123.36 25.492C123.126 26.038 122.797 26.4497 122.372 26.727C121.947 26.9957 121.453 27.13 120.89 27.13C120.535 27.13 120.223 27.0867 119.954 27C119.685 26.9047 119.456 26.7833 119.265 26.636C119.083 26.48 118.923 26.3153 118.784 26.142H118.693C118.719 26.298 118.741 26.4843 118.758 26.701C118.775 26.909 118.784 27.0953 118.784 27.26V30.12H117.406V19.993H118.524L118.719 20.929H118.784C118.923 20.7383 119.087 20.5607 119.278 20.396C119.469 20.2313 119.698 20.1013 119.967 20.006C120.236 19.9107 120.548 19.863 120.903 19.863ZM120.578 20.994C120.145 20.994 119.798 21.0807 119.538 21.254C119.278 21.4187 119.087 21.67 118.966 22.008C118.853 22.3373 118.793 22.7577 118.784 23.269V23.477C118.784 24.0143 118.84 24.4737 118.953 24.855C119.066 25.2277 119.252 25.5137 119.512 25.713C119.781 25.9037 120.145 25.999 120.604 25.999C120.994 25.999 121.31 25.895 121.553 25.687C121.804 25.4703 121.991 25.1713 122.112 24.79C122.233 24.4087 122.294 23.9667 122.294 23.464C122.294 22.7013 122.155 22.099 121.878 21.657C121.601 21.215 121.167 20.994 120.578 20.994Z" fill="#19191C"/>
<rect x="205" y="4" width="201" height="36" rx="18" fill="black"/>
<path d="M246.925 22.346C246.925 23.0653 246.834 23.7197 246.652 24.309C246.479 24.8897 246.21 25.3923 245.846 25.817C245.491 26.2417 245.04 26.5667 244.494 26.792C243.957 27.0173 243.328 27.13 242.609 27.13C241.872 27.13 241.231 27.0173 240.685 26.792C240.148 26.558 239.697 26.233 239.333 25.817C238.978 25.3923 238.713 24.8853 238.54 24.296C238.367 23.7067 238.28 23.0523 238.28 22.333C238.28 21.3797 238.436 20.5477 238.748 19.837C239.06 19.1263 239.537 18.5717 240.178 18.173C240.828 17.7743 241.643 17.575 242.622 17.575C243.575 17.575 244.368 17.7743 245.001 18.173C245.642 18.563 246.123 19.1177 246.444 19.837C246.765 20.5477 246.925 21.384 246.925 22.346ZM239.762 22.346C239.762 23.0913 239.862 23.7327 240.061 24.27C240.26 24.7987 240.572 25.2103 240.997 25.505C241.422 25.791 241.959 25.934 242.609 25.934C243.268 25.934 243.805 25.791 244.221 25.505C244.637 25.2103 244.945 24.7987 245.144 24.27C245.343 23.7327 245.443 23.0913 245.443 22.346C245.443 21.228 245.218 20.357 244.767 19.733C244.325 19.1003 243.61 18.784 242.622 18.784C241.963 18.784 241.422 18.927 240.997 19.213C240.572 19.499 240.26 19.9063 240.061 20.435C239.862 20.9637 239.762 21.6007 239.762 22.346ZM254.644 19.993V27H253.266V21.111H249.964V27H248.586V19.993H254.644ZM262.216 27H260.825V21.098H258.849C258.762 22.1727 258.654 23.0957 258.524 23.867C258.403 24.6297 258.242 25.2493 258.043 25.726C257.852 26.2027 257.614 26.5537 257.328 26.779C257.051 26.9957 256.717 27.104 256.327 27.104C256.188 27.104 256.054 27.091 255.924 27.065C255.794 27.0477 255.681 27.0173 255.586 26.974V25.921C255.647 25.9383 255.712 25.9557 255.781 25.973C255.859 25.9817 255.937 25.986 256.015 25.986C256.188 25.986 256.344 25.9167 256.483 25.778C256.63 25.6393 256.76 25.4227 256.873 25.128C256.994 24.8333 257.103 24.452 257.198 23.984C257.302 23.5073 257.389 22.9397 257.458 22.281C257.536 21.6223 257.605 20.8597 257.666 19.993H262.216V27ZM266.886 19.863C267.77 19.863 268.429 20.058 268.862 20.448C269.296 20.8293 269.512 21.4317 269.512 22.255V27H268.537L268.264 26.025H268.212C268.013 26.2763 267.805 26.4843 267.588 26.649C267.38 26.8137 267.138 26.935 266.86 27.013C266.592 27.091 266.262 27.13 265.872 27.13C265.456 27.13 265.079 27.0563 264.741 26.909C264.412 26.753 264.152 26.519 263.961 26.207C263.771 25.8863 263.675 25.4877 263.675 25.011C263.675 24.3003 263.944 23.7587 264.481 23.386C265.027 23.0133 265.855 22.8097 266.964 22.775L268.16 22.736V22.346C268.16 21.826 268.043 21.462 267.809 21.254C267.575 21.046 267.246 20.942 266.821 20.942C266.457 20.942 266.111 20.994 265.781 21.098C265.452 21.202 265.14 21.3277 264.845 21.475L264.403 20.474C264.733 20.3007 265.11 20.1577 265.534 20.045C265.968 19.9237 266.418 19.863 266.886 19.863ZM267.211 23.659C266.414 23.6937 265.859 23.828 265.547 24.062C265.244 24.2873 265.092 24.608 265.092 25.024C265.092 25.388 265.201 25.6523 265.417 25.817C265.643 25.9817 265.924 26.064 266.262 26.064C266.808 26.064 267.259 25.9123 267.614 25.609C267.97 25.3057 268.147 24.8507 268.147 24.244V23.633L267.211 23.659ZM276.556 21.098H274.268V27H272.903V21.098H270.628V19.993H276.556V21.098ZM277.722 27V19.993H279.1V22.814H280.647C281.288 22.814 281.817 22.892 282.233 23.048C282.649 23.1953 282.956 23.4163 283.156 23.711C283.355 24.0057 283.455 24.3783 283.455 24.829C283.455 25.271 283.355 25.6567 283.156 25.986C282.965 26.3067 282.662 26.558 282.246 26.74C281.838 26.9133 281.301 27 280.634 27H277.722ZM280.53 25.96C280.989 25.96 281.362 25.882 281.648 25.726C281.942 25.5613 282.09 25.2797 282.09 24.881C282.09 24.4997 281.955 24.2397 281.687 24.101C281.418 23.9537 281.032 23.88 280.53 23.88H279.1V25.96H280.53ZM284.573 27V19.993H285.951V27H284.573ZM292.396 23.815C292.396 23.919 292.392 24.0533 292.383 24.218C292.375 24.3827 292.366 24.556 292.357 24.738C292.349 24.9113 292.336 25.076 292.318 25.232C292.31 25.3793 292.301 25.4963 292.292 25.583L295.893 19.993H297.57V27H296.27V23.269C296.27 23.1043 296.275 22.9007 296.283 22.658C296.292 22.4153 296.301 22.1813 296.309 21.956C296.327 21.722 296.34 21.5443 296.348 21.423L292.773 27H291.083V19.993H292.396V23.815ZM308.243 19.993V25.908H309.27V29.457H307.983V27H303.147V29.457H301.873V25.908H302.432C302.805 25.3707 303.117 24.7813 303.368 24.14C303.62 23.4987 303.81 22.827 303.94 22.125C304.079 21.4143 304.161 20.7037 304.187 19.993H308.243ZM305.383 21.059C305.331 21.6223 305.236 22.1987 305.097 22.788C304.967 23.3773 304.798 23.9407 304.59 24.478C304.391 25.0153 304.153 25.492 303.875 25.908H306.891V21.059H305.383ZM316.565 23.49C316.565 24.0707 316.487 24.5863 316.331 25.037C316.175 25.4877 315.954 25.869 315.668 26.181C315.382 26.493 315.035 26.7313 314.628 26.896C314.22 27.052 313.761 27.13 313.25 27.13C312.782 27.13 312.348 27.052 311.95 26.896C311.551 26.7313 311.204 26.493 310.91 26.181C310.624 25.869 310.398 25.4877 310.234 25.037C310.069 24.5863 309.987 24.0663 309.987 23.477C309.987 22.7057 310.117 22.0513 310.377 21.514C310.645 20.9767 311.027 20.5693 311.521 20.292C312.023 20.006 312.613 19.863 313.289 19.863C313.93 19.863 314.493 20.006 314.979 20.292C315.473 20.5693 315.858 20.9767 316.136 21.514C316.422 22.0513 316.565 22.71 316.565 23.49ZM311.404 23.49C311.404 24.01 311.469 24.4607 311.599 24.842C311.729 25.2147 311.932 25.5007 312.21 25.7C312.487 25.8993 312.842 25.999 313.276 25.999C313.709 25.999 314.064 25.8993 314.342 25.7C314.619 25.5007 314.823 25.2147 314.953 24.842C315.083 24.4607 315.148 24.01 315.148 23.49C315.148 22.9527 315.078 22.502 314.94 22.138C314.81 21.774 314.606 21.4967 314.329 21.306C314.06 21.1067 313.705 21.007 313.263 21.007C312.613 21.007 312.14 21.2237 311.846 21.657C311.551 22.0903 311.404 22.7013 311.404 23.49ZM322.388 19.993H323.896L320.971 23.36L324.143 27H322.557L319.489 23.451V27H318.111V19.993H319.489V23.399L322.388 19.993ZM324.069 19.993H325.551L327.007 23.971C327.085 24.1703 327.154 24.3653 327.215 24.556C327.276 24.7467 327.328 24.9373 327.371 25.128C327.423 25.31 327.462 25.492 327.488 25.674H327.54C327.583 25.4487 327.653 25.1843 327.748 24.881C327.843 24.569 327.943 24.2613 328.047 23.958L329.425 19.993H330.907L327.904 27.949C327.739 28.3997 327.536 28.7853 327.293 29.106C327.05 29.4353 326.76 29.6867 326.422 29.86C326.093 30.0333 325.703 30.12 325.252 30.12C325.035 30.12 324.849 30.107 324.693 30.081C324.537 30.0637 324.403 30.042 324.29 30.016V28.924C324.385 28.9413 324.498 28.9587 324.628 28.976C324.767 28.9933 324.91 29.002 325.057 29.002C325.326 29.002 325.555 28.95 325.746 28.846C325.945 28.742 326.11 28.5947 326.24 28.404C326.379 28.2133 326.496 27.9967 326.591 27.754L326.877 27L324.069 19.993ZM339.695 19.993V27H338.447V22.84C338.447 22.606 338.451 22.372 338.46 22.138C338.477 21.8953 338.494 21.6657 338.512 21.449H338.473L336.289 27H335.184L333.039 21.449H332.987C333.013 21.6657 333.03 21.8953 333.039 22.138C333.047 22.372 333.052 22.619 333.052 22.879V27H331.791V19.993H333.676L335.743 25.362L337.849 19.993H339.695ZM344.427 19.863C345.042 19.863 345.571 19.993 346.013 20.253C346.455 20.5043 346.793 20.8683 347.027 21.345C347.269 21.8217 347.391 22.385 347.391 23.035V23.789H342.685C342.702 24.5083 342.888 25.0587 343.244 25.44C343.608 25.8213 344.115 26.012 344.765 26.012C345.215 26.012 345.614 25.973 345.961 25.895C346.316 25.8083 346.68 25.6827 347.053 25.518V26.662C346.706 26.818 346.351 26.935 345.987 27.013C345.631 27.091 345.207 27.13 344.713 27.13C344.037 27.13 343.439 26.9957 342.919 26.727C342.399 26.4583 341.991 26.0597 341.697 25.531C341.411 24.9937 341.268 24.335 341.268 23.555C341.268 22.7663 341.398 22.099 341.658 21.553C341.926 21.007 342.295 20.591 342.763 20.305C343.239 20.0103 343.794 19.863 344.427 19.863ZM344.427 20.929C343.933 20.929 343.534 21.0893 343.231 21.41C342.936 21.7307 342.763 22.1857 342.711 22.775H346.013C346.013 22.411 345.956 22.0903 345.844 21.813C345.731 21.5357 345.558 21.319 345.324 21.163C345.09 21.007 344.791 20.929 344.427 20.929ZM350.288 19.993V22.84H353.746V19.993H355.124V27H353.746V23.945H350.288V27H348.91V19.993H350.288ZM362.198 21.098H359.91V27H358.545V21.098H356.27V19.993H362.198V21.098ZM363.364 27V19.993H364.742V22.814H366.289C366.93 22.814 367.459 22.892 367.875 23.048C368.291 23.1953 368.598 23.4163 368.798 23.711C368.997 24.0057 369.097 24.3783 369.097 24.829C369.097 25.271 368.997 25.6567 368.798 25.986C368.607 26.3067 368.304 26.558 367.888 26.74C367.48 26.9133 366.943 27 366.276 27H363.364ZM366.172 25.96C366.631 25.96 367.004 25.882 367.29 25.726C367.584 25.5613 367.732 25.2797 367.732 24.881C367.732 24.4997 367.597 24.2397 367.329 24.101C367.06 23.9537 366.674 23.88 366.172 23.88H364.742V25.96H366.172ZM370.215 27V19.993H371.593V27H370.215Z" fill="white"/>
<path d="M437.242 27H435.591L431.639 22.294V27H430.235V17.718H431.639V22.216L435.513 17.718H437.06L433.225 22.216L437.242 27ZM444.293 23.49C444.293 24.0707 444.215 24.5863 444.059 25.037C443.903 25.4877 443.682 25.869 443.396 26.181C443.11 26.493 442.764 26.7313 442.356 26.896C441.949 27.052 441.49 27.13 440.978 27.13C440.51 27.13 440.077 27.052 439.678 26.896C439.28 26.7313 438.933 26.493 438.638 26.181C438.352 25.869 438.127 25.4877 437.962 25.037C437.798 24.5863 437.715 24.0663 437.715 23.477C437.715 22.7057 437.845 22.0513 438.105 21.514C438.374 20.9767 438.755 20.5693 439.249 20.292C439.752 20.006 440.341 19.863 441.017 19.863C441.659 19.863 442.222 20.006 442.707 20.292C443.201 20.5693 443.587 20.9767 443.864 21.514C444.15 22.0513 444.293 22.71 444.293 23.49ZM439.132 23.49C439.132 24.01 439.197 24.4607 439.327 24.842C439.457 25.2147 439.661 25.5007 439.938 25.7C440.216 25.8993 440.571 25.999 441.004 25.999C441.438 25.999 441.793 25.8993 442.07 25.7C442.348 25.5007 442.551 25.2147 442.681 24.842C442.811 24.4607 442.876 24.01 442.876 23.49C442.876 22.9527 442.807 22.502 442.668 22.138C442.538 21.774 442.335 21.4967 442.057 21.306C441.789 21.1067 441.433 21.007 440.991 21.007C440.341 21.007 439.869 21.2237 439.574 21.657C439.28 22.0903 439.132 22.7013 439.132 23.49ZM453.744 19.993V27H452.496V22.84C452.496 22.606 452.5 22.372 452.509 22.138C452.526 21.8953 452.544 21.6657 452.561 21.449H452.522L450.338 27H449.233L447.088 21.449H447.036C447.062 21.6657 447.079 21.8953 447.088 22.138C447.097 22.372 447.101 22.619 447.101 22.879V27H445.84V19.993H447.725L449.792 25.362L451.898 19.993H453.744ZM463.624 19.993V27H462.376V22.84C462.376 22.606 462.381 22.372 462.389 22.138C462.407 21.8953 462.424 21.6657 462.441 21.449H462.402L460.218 27H459.113L456.968 21.449H456.916C456.942 21.6657 456.96 21.8953 456.968 22.138C456.977 22.372 456.981 22.619 456.981 22.879V27H455.72V19.993H457.605L459.672 25.362L461.778 19.993H463.624ZM464.534 19.993H466.016L467.472 23.971C467.55 24.1703 467.62 24.3653 467.68 24.556C467.741 24.7467 467.793 24.9373 467.836 25.128C467.888 25.31 467.927 25.492 467.953 25.674H468.005C468.049 25.4487 468.118 25.1843 468.213 24.881C468.309 24.569 468.408 24.2613 468.512 23.958L469.89 19.993H471.372L468.369 27.949C468.205 28.3997 468.001 28.7853 467.758 29.106C467.516 29.4353 467.225 29.6867 466.887 29.86C466.558 30.0333 466.168 30.12 465.717 30.12C465.501 30.12 465.314 30.107 465.158 30.081C465.002 30.0637 464.868 30.042 464.755 30.016V28.924C464.851 28.9413 464.963 28.9587 465.093 28.976C465.232 28.9933 465.375 29.002 465.522 29.002C465.791 29.002 466.021 28.95 466.211 28.846C466.411 28.742 466.575 28.5947 466.705 28.404C466.844 28.2133 466.961 27.9967 467.056 27.754L467.342 27L464.534 19.993ZM473.634 19.993V22.84H477.092V19.993H478.47V27H477.092V23.945H473.634V27H472.256V19.993H473.634ZM483.139 19.863C484.023 19.863 484.682 20.058 485.115 20.448C485.548 20.8293 485.765 21.4317 485.765 22.255V27H484.79L484.517 26.025H484.465C484.266 26.2763 484.058 26.4843 483.841 26.649C483.633 26.8137 483.39 26.935 483.113 27.013C482.844 27.091 482.515 27.13 482.125 27.13C481.709 27.13 481.332 27.0563 480.994 26.909C480.665 26.753 480.405 26.519 480.214 26.207C480.023 25.8863 479.928 25.4877 479.928 25.011C479.928 24.3003 480.197 23.7587 480.734 23.386C481.28 23.0133 482.108 22.8097 483.217 22.775L484.413 22.736V22.346C484.413 21.826 484.296 21.462 484.062 21.254C483.828 21.046 483.499 20.942 483.074 20.942C482.71 20.942 482.363 20.994 482.034 21.098C481.705 21.202 481.393 21.3277 481.098 21.475L480.656 20.474C480.985 20.3007 481.362 20.1577 481.787 20.045C482.22 19.9237 482.671 19.863 483.139 19.863ZM483.464 23.659C482.667 23.6937 482.112 23.828 481.8 24.062C481.497 24.2873 481.345 24.608 481.345 25.024C481.345 25.388 481.453 25.6523 481.67 25.817C481.895 25.9817 482.177 26.064 482.515 26.064C483.061 26.064 483.512 25.9123 483.867 25.609C484.222 25.3057 484.4 24.8507 484.4 24.244V23.633L483.464 23.659ZM493.303 27H491.912V21.098H489.936C489.849 22.1727 489.741 23.0957 489.611 23.867C489.489 24.6297 489.329 25.2493 489.13 25.726C488.939 26.2027 488.701 26.5537 488.415 26.779C488.137 26.9957 487.804 27.104 487.414 27.104C487.275 27.104 487.141 27.091 487.011 27.065C486.881 27.0477 486.768 27.0173 486.673 26.974V25.921C486.733 25.9383 486.798 25.9557 486.868 25.973C486.946 25.9817 487.024 25.986 487.102 25.986C487.275 25.986 487.431 25.9167 487.57 25.778C487.717 25.6393 487.847 25.4227 487.96 25.128C488.081 24.8333 488.189 24.452 488.285 23.984C488.389 23.5073 488.475 22.9397 488.545 22.281C488.623 21.6223 488.692 20.8597 488.753 19.993H493.303V27ZM498.493 22.814C499.135 22.814 499.663 22.892 500.079 23.048C500.504 23.1953 500.82 23.4163 501.028 23.711C501.245 24.0057 501.353 24.3783 501.353 24.829C501.353 25.271 501.254 25.6567 501.054 25.986C500.855 26.3067 500.543 26.558 500.118 26.74C499.694 26.9133 499.148 27 498.48 27H495.256V19.993H496.634V22.814H498.493ZM499.975 24.881C499.975 24.4997 499.837 24.2397 499.559 24.101C499.291 23.9537 498.901 23.88 498.389 23.88H496.634V25.96H498.415C498.875 25.96 499.247 25.8777 499.533 25.713C499.828 25.5483 499.975 25.271 499.975 24.881ZM504.229 19.993V22.84H507.687V19.993H509.065V27H507.687V23.945H504.229V27H502.851V19.993H504.229ZM511.017 27V19.993H512.395V22.814H513.942C514.584 22.814 515.112 22.892 515.528 23.048C515.944 23.1953 516.252 23.4163 516.451 23.711C516.651 24.0057 516.75 24.3783 516.75 24.829C516.75 25.271 516.651 25.6567 516.451 25.986C516.261 26.3067 515.957 26.558 515.541 26.74C515.134 26.9133 514.597 27 513.929 27H511.017ZM513.825 25.96C514.285 25.96 514.657 25.882 514.943 25.726C515.238 25.5613 515.385 25.2797 515.385 24.881C515.385 24.4997 515.251 24.2397 514.982 24.101C514.714 23.9537 514.328 23.88 513.825 23.88H512.395V25.96H513.825ZM517.868 27V19.993H519.246V27H517.868ZM523.958 19.863C524.574 19.863 525.102 19.993 525.544 20.253C525.986 20.5043 526.324 20.8683 526.558 21.345C526.801 21.8217 526.922 22.385 526.922 23.035V23.789H522.216C522.234 24.5083 522.42 25.0587 522.775 25.44C523.139 25.8213 523.646 26.012 524.296 26.012C524.747 26.012 525.146 25.973 525.492 25.895C525.848 25.8083 526.212 25.6827 526.584 25.518V26.662C526.238 26.818 525.882 26.935 525.518 27.013C525.163 27.091 524.738 27.13 524.244 27.13C523.568 27.13 522.97 26.9957 522.45 26.727C521.93 26.4583 521.523 26.0597 521.228 25.531C520.942 24.9937 520.799 24.335 520.799 23.555C520.799 22.7663 520.929 22.099 521.189 21.553C521.458 21.007 521.826 20.591 522.294 20.305C522.771 20.0103 523.326 19.863 523.958 19.863ZM523.958 20.929C523.464 20.929 523.066 21.0893 522.762 21.41C522.468 21.7307 522.294 22.1857 522.242 22.775H525.544C525.544 22.411 525.488 22.0903 525.375 21.813C525.263 21.5357 525.089 21.319 524.855 21.163C524.621 21.007 524.322 20.929 523.958 20.929ZM532.932 23.815C532.932 23.919 532.927 24.0533 532.919 24.218C532.91 24.3827 532.901 24.556 532.893 24.738C532.884 24.9113 532.871 25.076 532.854 25.232C532.845 25.3793 532.836 25.4963 532.828 25.583L536.429 19.993H538.106V27H536.806V23.269C536.806 23.1043 536.81 22.9007 536.819 22.658C536.827 22.4153 536.836 22.1813 536.845 21.956C536.862 21.722 536.875 21.5443 536.884 21.423L533.309 27H531.619V19.993H532.932V23.815ZM542.188 19.993H543.67L545.126 23.971C545.204 24.1703 545.273 24.3653 545.334 24.556C545.394 24.7467 545.446 24.9373 545.49 25.128C545.542 25.31 545.581 25.492 545.607 25.674H545.659C545.702 25.4487 545.771 25.1843 545.867 24.881C545.962 24.569 546.062 24.2613 546.166 23.958L547.544 19.993H549.026L546.023 27.949C545.858 28.3997 545.654 28.7853 545.412 29.106C545.169 29.4353 544.879 29.6867 544.541 29.86C544.211 30.0333 543.821 30.12 543.371 30.12C543.154 30.12 542.968 30.107 542.812 30.081C542.656 30.0637 542.521 30.042 542.409 30.016V28.924C542.504 28.9413 542.617 28.9587 542.747 28.976C542.885 28.9933 543.028 29.002 543.176 29.002C543.444 29.002 543.674 28.95 543.865 28.846C544.064 28.742 544.229 28.5947 544.359 28.404C544.497 28.2133 544.614 27.9967 544.71 27.754L544.996 27L542.188 19.993ZM552.73 27.13C552.089 27.13 551.526 27.0043 551.04 26.753C550.555 26.5017 550.178 26.1117 549.909 25.583C549.641 25.0457 549.506 24.3653 549.506 23.542C549.506 22.6753 549.649 21.9733 549.935 21.436C550.23 20.8987 550.624 20.5043 551.118 20.253C551.621 19.993 552.193 19.863 552.834 19.863C553.224 19.863 553.588 19.9063 553.926 19.993C554.273 20.071 554.559 20.162 554.784 20.266L554.368 21.384C554.126 21.2887 553.866 21.2063 553.588 21.137C553.32 21.0677 553.064 21.033 552.821 21.033C552.388 21.033 552.028 21.1283 551.742 21.319C551.465 21.501 551.257 21.7783 551.118 22.151C550.988 22.515 550.923 22.9743 550.923 23.529C550.923 24.0577 550.993 24.504 551.131 24.868C551.27 25.232 551.474 25.5093 551.742 25.7C552.02 25.882 552.362 25.973 552.769 25.973C553.159 25.973 553.502 25.9297 553.796 25.843C554.091 25.7563 554.368 25.6437 554.628 25.505V26.701C554.377 26.8483 554.104 26.9567 553.809 27.026C553.515 27.0953 553.155 27.13 552.73 27.13ZM561.698 27H560.307V21.098H558.331C558.245 22.1727 558.136 23.0957 558.006 23.867C557.885 24.6297 557.725 25.2493 557.525 25.726C557.335 26.2027 557.096 26.5537 556.81 26.779C556.533 26.9957 556.199 27.104 555.809 27.104C555.671 27.104 555.536 27.091 555.406 27.065C555.276 27.0477 555.164 27.0173 555.068 26.974V25.921C555.129 25.9383 555.194 25.9557 555.263 25.973C555.341 25.9817 555.419 25.986 555.497 25.986C555.671 25.986 555.827 25.9167 555.965 25.778C556.113 25.6393 556.243 25.4227 556.355 25.128C556.477 24.8333 556.585 24.452 556.68 23.984C556.784 23.5073 556.871 22.9397 556.94 22.281C557.018 21.6223 557.088 20.8597 557.148 19.993H561.698V27ZM562.586 19.993H564.068L565.524 23.971C565.602 24.1703 565.671 24.3653 565.732 24.556C565.793 24.7467 565.845 24.9373 565.888 25.128C565.94 25.31 565.979 25.492 566.005 25.674H566.057C566.1 25.4487 566.17 25.1843 566.265 24.881C566.36 24.569 566.46 24.2613 566.564 23.958L567.942 19.993H569.424L566.421 27.949C566.256 28.3997 566.053 28.7853 565.81 29.106C565.567 29.4353 565.277 29.6867 564.939 29.86C564.61 30.0333 564.22 30.12 563.769 30.12C563.552 30.12 563.366 30.107 563.21 30.081C563.054 30.0637 562.92 30.042 562.807 30.016V28.924C562.902 28.9413 563.015 28.9587 563.145 28.976C563.284 28.9933 563.427 29.002 563.574 29.002C563.843 29.002 564.072 28.95 564.263 28.846C564.462 28.742 564.627 28.5947 564.757 28.404C564.896 28.2133 565.013 27.9967 565.108 27.754L565.394 27L562.586 19.993ZM574.753 19.993V21.098H571.685V27H570.307V19.993H574.753ZM577.222 23.815C577.222 23.919 577.218 24.0533 577.209 24.218C577.2 24.3827 577.192 24.556 577.183 24.738C577.174 24.9113 577.161 25.076 577.144 25.232C577.135 25.3793 577.127 25.4963 577.118 25.583L580.719 19.993H582.396V27H581.096V23.269C581.096 23.1043 581.1 22.9007 581.109 22.658C581.118 22.4153 581.126 22.1813 581.135 21.956C581.152 21.722 581.165 21.5443 581.174 21.423L577.599 27H575.909V19.993H577.222V23.815Z" fill="#19191C"/>
<path d="M669.33 24.335C669.053 24.9417 668.771 25.4573 668.485 25.882C668.208 26.298 667.865 26.61 667.458 26.818C667.059 27.026 666.544 27.13 665.911 27.13C665.677 27.13 665.443 27.1127 665.209 27.078C664.984 27.0433 664.776 26.9957 664.585 26.935V25.622C664.767 25.7 664.966 25.7607 665.183 25.804C665.4 25.8473 665.616 25.869 665.833 25.869C666.145 25.869 666.405 25.8257 666.613 25.739C666.83 25.6437 667.016 25.5007 667.172 25.31C667.328 25.1107 667.471 24.8593 667.601 24.556L664.143 17.718H665.664L667.991 22.502C668.034 22.5713 668.073 22.658 668.108 22.762C668.151 22.8573 668.195 22.957 668.238 23.061C668.29 23.165 668.329 23.2603 668.355 23.347H668.407C668.442 23.2777 668.476 23.191 668.511 23.087C668.546 22.983 668.585 22.879 668.628 22.775C668.671 22.671 668.71 22.58 668.745 22.502L670.799 17.718H672.268L669.33 24.335ZM678.955 21.774C678.955 22.1987 678.825 22.5367 678.565 22.788C678.313 23.0307 677.975 23.1953 677.551 23.282V23.334C678.001 23.3947 678.383 23.555 678.695 23.815C679.015 24.0663 679.176 24.439 679.176 24.933C679.176 25.2363 679.119 25.5137 679.007 25.765C678.894 26.0163 678.721 26.2373 678.487 26.428C678.253 26.61 677.949 26.753 677.577 26.857C677.213 26.9523 676.771 27 676.251 27H673.144V19.993H676.251C676.762 19.993 677.221 20.0493 677.629 20.162C678.036 20.2747 678.357 20.461 678.591 20.721C678.833 20.981 678.955 21.332 678.955 21.774ZM677.746 24.907C677.746 24.543 677.607 24.283 677.33 24.127C677.052 23.9623 676.641 23.88 676.095 23.88H674.522V25.96H676.121C676.632 25.96 677.031 25.882 677.317 25.726C677.603 25.5613 677.746 25.2883 677.746 24.907ZM677.551 21.93C677.551 21.6267 677.442 21.4057 677.226 21.267C677.009 21.1283 676.658 21.059 676.173 21.059H674.522V22.827H675.965C676.485 22.827 676.879 22.7577 677.148 22.619C677.416 22.4717 677.551 22.242 677.551 21.93ZM683.393 19.863C684.008 19.863 684.537 19.993 684.979 20.253C685.421 20.5043 685.759 20.8683 685.993 21.345C686.236 21.8217 686.357 22.385 686.357 23.035V23.789H681.651C681.668 24.5083 681.855 25.0587 682.21 25.44C682.574 25.8213 683.081 26.012 683.731 26.012C684.182 26.012 684.58 25.973 684.927 25.895C685.282 25.8083 685.646 25.6827 686.019 25.518V26.662C685.672 26.818 685.317 26.935 684.953 27.013C684.598 27.091 684.173 27.13 683.679 27.13C683.003 27.13 682.405 26.9957 681.885 26.727C681.365 26.4583 680.958 26.0597 680.663 25.531C680.377 24.9937 680.234 24.335 680.234 23.555C680.234 22.7663 680.364 22.099 680.624 21.553C680.893 21.007 681.261 20.591 681.729 20.305C682.206 20.0103 682.76 19.863 683.393 19.863ZM683.393 20.929C682.899 20.929 682.5 21.0893 682.197 21.41C681.902 21.7307 681.729 22.1857 681.677 22.775H684.979C684.979 22.411 684.923 22.0903 684.81 21.813C684.697 21.5357 684.524 21.319 684.29 21.163C684.056 21.007 683.757 20.929 683.393 20.929ZM693.401 19.993V25.908H694.428V29.457H693.141V27H688.305V29.457H687.031V25.908H687.59C687.963 25.3707 688.275 24.7813 688.526 24.14C688.778 23.4987 688.968 22.827 689.098 22.125C689.237 21.4143 689.319 20.7037 689.345 19.993H693.401ZM690.541 21.059C690.489 21.6223 690.394 22.1987 690.255 22.788C690.125 23.3773 689.956 23.9407 689.748 24.478C689.549 25.0153 689.311 25.492 689.033 25.908H692.049V21.059H690.541ZM701.723 23.49C701.723 24.0707 701.645 24.5863 701.489 25.037C701.333 25.4877 701.112 25.869 700.826 26.181C700.54 26.493 700.193 26.7313 699.786 26.896C699.378 27.052 698.919 27.13 698.408 27.13C697.94 27.13 697.506 27.052 697.108 26.896C696.709 26.7313 696.362 26.493 696.068 26.181C695.782 25.869 695.556 25.4877 695.392 25.037C695.227 24.5863 695.145 24.0663 695.145 23.477C695.145 22.7057 695.275 22.0513 695.535 21.514C695.803 20.9767 696.185 20.5693 696.679 20.292C697.181 20.006 697.771 19.863 698.447 19.863C699.088 19.863 699.651 20.006 700.137 20.292C700.631 20.5693 701.016 20.9767 701.294 21.514C701.58 22.0513 701.723 22.71 701.723 23.49ZM696.562 23.49C696.562 24.01 696.627 24.4607 696.757 24.842C696.887 25.2147 697.09 25.5007 697.368 25.7C697.645 25.8993 698 25.999 698.434 25.999C698.867 25.999 699.222 25.8993 699.5 25.7C699.777 25.5007 699.981 25.2147 700.111 24.842C700.241 24.4607 700.306 24.01 700.306 23.49C700.306 22.9527 700.236 22.502 700.098 22.138C699.968 21.774 699.764 21.4967 699.487 21.306C699.218 21.1067 698.863 21.007 698.421 21.007C697.771 21.007 697.298 21.2237 697.004 21.657C696.709 22.0903 696.562 22.7013 696.562 23.49ZM711.173 19.993V27H709.925V22.84C709.925 22.606 709.93 22.372 709.938 22.138C709.956 21.8953 709.973 21.6657 709.99 21.449H709.951L707.767 27H706.662L704.517 21.449H704.465C704.491 21.6657 704.509 21.8953 704.517 22.138C704.526 22.372 704.53 22.619 704.53 22.879V27H703.269V19.993H705.154L707.221 25.362L709.327 19.993H711.173ZM718.766 27H717.375V21.098H715.399C715.312 22.1727 715.204 23.0957 715.074 23.867C714.952 24.6297 714.792 25.2493 714.593 25.726C714.402 26.2027 714.164 26.5537 713.878 26.779C713.6 26.9957 713.267 27.104 712.877 27.104C712.738 27.104 712.604 27.091 712.474 27.065C712.344 27.0477 712.231 27.0173 712.136 26.974V25.921C712.196 25.9383 712.261 25.9557 712.331 25.973C712.409 25.9817 712.487 25.986 712.565 25.986C712.738 25.986 712.894 25.9167 713.033 25.778C713.18 25.6393 713.31 25.4227 713.423 25.128C713.544 24.8333 713.652 24.452 713.748 23.984C713.852 23.5073 713.938 22.9397 714.008 22.281C714.086 21.6223 714.155 20.8597 714.216 19.993H718.766V27ZM723.475 19.863C724.09 19.863 724.619 19.993 725.061 20.253C725.503 20.5043 725.841 20.8683 726.075 21.345C726.318 21.8217 726.439 22.385 726.439 23.035V23.789H721.733C721.75 24.5083 721.937 25.0587 722.292 25.44C722.656 25.8213 723.163 26.012 723.813 26.012C724.264 26.012 724.662 25.973 725.009 25.895C725.364 25.8083 725.728 25.6827 726.101 25.518V26.662C725.754 26.818 725.399 26.935 725.035 27.013C724.68 27.091 724.255 27.13 723.761 27.13C723.085 27.13 722.487 26.9957 721.967 26.727C721.447 26.4583 721.04 26.0597 720.745 25.531C720.459 24.9937 720.316 24.335 720.316 23.555C720.316 22.7663 720.446 22.099 720.706 21.553C720.975 21.007 721.343 20.591 721.811 20.305C722.288 20.0103 722.842 19.863 723.475 19.863ZM723.475 20.929C722.981 20.929 722.582 21.0893 722.279 21.41C721.984 21.7307 721.811 22.1857 721.759 22.775H725.061C725.061 22.411 725.005 22.0903 724.892 21.813C724.779 21.5357 724.606 21.319 724.372 21.163C724.138 21.007 723.839 20.929 723.475 20.929ZM729.336 19.993V22.84H732.794V19.993H734.172V27H732.794V23.945H729.336V27H727.958V19.993H729.336ZM737.438 23.815C737.438 23.919 737.433 24.0533 737.425 24.218C737.416 24.3827 737.407 24.556 737.399 24.738C737.39 24.9113 737.377 25.076 737.36 25.232C737.351 25.3793 737.342 25.4963 737.334 25.583L740.935 19.993H742.612V27H741.312V23.269C741.312 23.1043 741.316 22.9007 741.325 22.658C741.333 22.4153 741.342 22.1813 741.351 21.956C741.368 21.722 741.381 21.5443 741.39 21.423L737.815 27H736.125V19.993H737.438V23.815ZM745.207 27H743.647L745.623 24.114C745.354 24.0273 745.099 23.906 744.856 23.75C744.622 23.594 744.431 23.3773 744.284 23.1C744.137 22.8227 744.063 22.4847 744.063 22.086C744.063 21.41 744.301 20.8943 744.778 20.539C745.255 20.175 745.879 19.993 746.65 19.993H749.822V27H748.444V24.27H746.936L745.207 27ZM745.402 22.099C745.402 22.4717 745.541 22.7533 745.818 22.944C746.095 23.126 746.481 23.217 746.975 23.217H748.444V21.059H746.741C746.264 21.059 745.922 21.1587 745.714 21.358C745.506 21.5573 745.402 21.8043 745.402 22.099Z" fill="#19191C"/>
</svg>
