<svg width="236" height="44" viewBox="0 0 236 44" fill="none" xmlns="http://www.w3.org/2000/svg">
<path fill-rule="evenodd" clip-rule="evenodd" d="M22 13C24.2782 13 26.125 14.8468 26.125 17.125C26.125 19.4032 24.2782 21.25 22 21.25C19.7218 21.25 17.875 19.4032 17.875 17.125C17.875 14.8468 19.7218 13 22 13Z" stroke="#19191C" stroke-width="1.5"/>
<path fill-rule="evenodd" clip-rule="evenodd" d="M22 22C25.7279 22 28.75 24.0147 28.75 26.5C28.75 28.9853 25.7279 31 22 31C18.2721 31 15.25 28.9853 15.25 26.5C15.25 24.0147 18.2721 22 22 22Z" stroke="#19191C" stroke-width="1.5"/>
<path d="M58.64 28L57.424 24.704H53.008L51.792 28H50L54.336 16.528H56.128L60.448 28H58.64ZM55.792 19.984C55.76 19.8667 55.7013 19.6907 55.616 19.456C55.5413 19.2107 55.4667 18.9653 55.392 18.72C55.3173 18.464 55.2587 18.256 55.216 18.096C55.1627 18.3093 55.0987 18.544 55.024 18.8C54.96 19.0453 54.896 19.2747 54.832 19.488C54.768 19.6907 54.7147 19.856 54.672 19.984L53.52 23.2H56.944L55.792 19.984ZM66.0208 19.216C67.0554 19.216 67.8874 19.5893 68.5168 20.336C69.1568 21.0827 69.4768 22.1973 69.4768 23.68C69.4768 24.6507 69.3328 25.472 69.0448 26.144C68.7568 26.816 68.3514 27.3227 67.8288 27.664C67.3061 27.9947 66.6981 28.16 66.0048 28.16C65.5674 28.16 65.1834 28.1067 64.8528 28C64.5221 27.8827 64.2394 27.7333 64.0048 27.552C63.7808 27.36 63.5834 27.1573 63.4128 26.944H63.3008C63.3328 27.136 63.3594 27.3653 63.3808 27.632C63.4021 27.888 63.4128 28.1173 63.4128 28.32V31.84H61.7168V19.376H63.0928L63.3328 20.528H63.4128C63.5834 20.2933 63.7861 20.0747 64.0208 19.872C64.2554 19.6693 64.5381 19.5093 64.8688 19.392C65.1994 19.2747 65.5834 19.216 66.0208 19.216ZM65.6208 20.608C65.0874 20.608 64.6608 20.7147 64.3408 20.928C64.0208 21.1307 63.7861 21.44 63.6368 21.856C63.4981 22.2613 63.4234 22.7787 63.4128 23.408V23.664C63.4128 24.3253 63.4821 24.8907 63.6208 25.36C63.7594 25.8187 63.9888 26.1707 64.3088 26.416C64.6394 26.6507 65.0874 26.768 65.6528 26.768C66.1328 26.768 66.5221 26.64 66.8208 26.384C67.1301 26.1173 67.3594 25.7493 67.5088 25.28C67.6581 24.8107 67.7328 24.2667 67.7328 23.648C67.7328 22.7093 67.5621 21.968 67.2208 21.424C66.8794 20.88 66.3461 20.608 65.6208 20.608ZM74.9506 19.216C75.708 19.216 76.3586 19.376 76.9026 19.696C77.4466 20.0053 77.8626 20.4533 78.1506 21.04C78.4493 21.6267 78.5986 22.32 78.5986 23.12V24.048H72.8066C72.828 24.9333 73.0573 25.6107 73.4946 26.08C73.9426 26.5493 74.5666 26.784 75.3666 26.784C75.9213 26.784 76.412 26.736 76.8386 26.64C77.276 26.5333 77.724 26.3787 78.1826 26.176V27.584C77.756 27.776 77.3186 27.92 76.8706 28.016C76.4333 28.112 75.9106 28.16 75.3026 28.16C74.4706 28.16 73.7346 27.9947 73.0946 27.664C72.4546 27.3333 71.9533 26.8427 71.5906 26.192C71.2386 25.5307 71.0626 24.72 71.0626 23.76C71.0626 22.7893 71.2226 21.968 71.5426 21.296C71.8733 20.624 72.3266 20.112 72.9026 19.76C73.4893 19.3973 74.172 19.216 74.9506 19.216ZM74.9506 20.528C74.3426 20.528 73.852 20.7253 73.4786 21.12C73.116 21.5147 72.9026 22.0747 72.8386 22.8H76.9026C76.9026 22.352 76.8333 21.9573 76.6946 21.616C76.556 21.2747 76.3426 21.008 76.0546 20.816C75.7666 20.624 75.3986 20.528 74.9506 20.528ZM82.3309 19.376V22.88H86.5869V19.376H88.2829V28H86.5869V24.24H82.3309V28H80.6349V19.376H82.3309ZM97.6518 19.376V26.656H98.9158V31.024H97.3318V28H91.3798V31.024H89.8118V26.656H90.4998C90.9584 25.9947 91.3424 25.2693 91.6518 24.48C91.9611 23.6907 92.1958 22.864 92.3558 22C92.5264 21.1253 92.6278 20.2507 92.6598 19.376H97.6518ZM94.1318 20.688C94.0678 21.3813 93.9504 22.0907 93.7798 22.816C93.6198 23.5413 93.4118 24.2347 93.1558 24.896C92.9104 25.5573 92.6171 26.144 92.2758 26.656H95.9878V20.688H94.1318ZM103.803 19.216C104.891 19.216 105.702 19.456 106.235 19.936C106.769 20.4053 107.035 21.1467 107.035 22.16V28H105.835L105.499 26.8H105.435C105.19 27.1093 104.934 27.3653 104.667 27.568C104.411 27.7707 104.113 27.92 103.771 28.016C103.441 28.112 103.035 28.16 102.555 28.16C102.043 28.16 101.579 28.0693 101.163 27.888C100.758 27.696 100.438 27.408 100.203 27.024C99.9686 26.6293 99.8512 26.1387 99.8512 25.552C99.8512 24.6773 100.182 24.0107 100.843 23.552C101.515 23.0933 102.534 22.8427 103.899 22.8L105.371 22.752V22.272C105.371 21.632 105.227 21.184 104.939 20.928C104.651 20.672 104.246 20.544 103.723 20.544C103.275 20.544 102.849 20.608 102.443 20.736C102.038 20.864 101.654 21.0187 101.291 21.2L100.747 19.968C101.153 19.7547 101.617 19.5787 102.139 19.44C102.673 19.2907 103.227 19.216 103.803 19.216ZM104.203 23.888C103.222 23.9307 102.539 24.096 102.155 24.384C101.782 24.6613 101.595 25.056 101.595 25.568C101.595 26.016 101.729 26.3413 101.995 26.544C102.273 26.7467 102.619 26.848 103.035 26.848C103.707 26.848 104.262 26.6613 104.699 26.288C105.137 25.9147 105.355 25.3547 105.355 24.608V23.856L104.203 23.888ZM115.871 20.736H113.055V28H111.375V20.736H108.575V19.376H115.871V20.736ZM124.915 23.68C124.915 24.3947 124.819 25.0293 124.627 25.584C124.435 26.1387 124.163 26.608 123.811 26.992C123.459 27.376 123.032 27.6693 122.531 27.872C122.03 28.064 121.464 28.16 120.835 28.16C120.259 28.16 119.726 28.064 119.235 27.872C118.744 27.6693 118.318 27.376 117.955 26.992C117.603 26.608 117.326 26.1387 117.123 25.584C116.92 25.0293 116.819 24.3893 116.819 23.664C116.819 22.7147 116.979 21.9093 117.299 21.248C117.63 20.5867 118.099 20.0853 118.707 19.744C119.326 19.392 120.051 19.216 120.883 19.216C121.672 19.216 122.366 19.392 122.963 19.744C123.571 20.0853 124.046 20.5867 124.387 21.248C124.739 21.9093 124.915 22.72 124.915 23.68ZM118.563 23.68C118.563 24.32 118.643 24.8747 118.803 25.344C118.963 25.8027 119.214 26.1547 119.555 26.4C119.896 26.6453 120.334 26.768 120.867 26.768C121.4 26.768 121.838 26.6453 122.179 26.4C122.52 26.1547 122.771 25.8027 122.931 25.344C123.091 24.8747 123.171 24.32 123.171 23.68C123.171 23.0187 123.086 22.464 122.915 22.016C122.755 21.568 122.504 21.2267 122.163 20.992C121.832 20.7467 121.395 20.624 120.851 20.624C120.051 20.624 119.47 20.8907 119.107 21.424C118.744 21.9573 118.563 22.7093 118.563 23.68ZM131.289 19.216C132.324 19.216 133.156 19.5893 133.785 20.336C134.425 21.0827 134.745 22.1973 134.745 23.68C134.745 24.6507 134.601 25.472 134.313 26.144C134.025 26.816 133.62 27.3227 133.097 27.664C132.574 27.9947 131.966 28.16 131.273 28.16C130.836 28.16 130.452 28.1067 130.121 28C129.79 27.8827 129.508 27.7333 129.273 27.552C129.049 27.36 128.852 27.1573 128.681 26.944H128.569C128.601 27.136 128.628 27.3653 128.649 27.632C128.67 27.888 128.681 28.1173 128.681 28.32V31.84H126.985V19.376H128.361L128.601 20.528H128.681C128.852 20.2933 129.054 20.0747 129.289 19.872C129.524 19.6693 129.806 19.5093 130.137 19.392C130.468 19.2747 130.852 19.216 131.289 19.216ZM130.889 20.608C130.356 20.608 129.929 20.7147 129.609 20.928C129.289 21.1307 129.054 21.44 128.905 21.856C128.766 22.2613 128.692 22.7787 128.681 23.408V23.664C128.681 24.3253 128.75 24.8907 128.889 25.36C129.028 25.8187 129.257 26.1707 129.577 26.416C129.908 26.6507 130.356 26.768 130.921 26.768C131.401 26.768 131.79 26.64 132.089 26.384C132.398 26.1173 132.628 25.7493 132.777 25.28C132.926 24.8107 133.001 24.2667 133.001 23.648C133.001 22.7093 132.83 21.968 132.489 21.424C132.148 20.88 131.614 20.608 130.889 20.608ZM136.827 28V19.376H138.523V22.848H140.427C141.216 22.848 141.867 22.944 142.379 23.136C142.891 23.3173 143.269 23.5893 143.515 23.952C143.76 24.3147 143.883 24.7733 143.883 25.328C143.883 25.872 143.76 26.3467 143.515 26.752C143.28 27.1467 142.907 27.456 142.395 27.68C141.893 27.8933 141.232 28 140.411 28H136.827ZM140.283 26.72C140.848 26.72 141.307 26.624 141.659 26.432C142.021 26.2293 142.203 25.8827 142.203 25.392C142.203 24.9227 142.037 24.6027 141.707 24.432C141.376 24.2507 140.901 24.16 140.283 24.16H138.523V26.72H140.283ZM145.259 28V19.376H146.955V28H145.259Z" fill="#19191C"/>
</svg>
