<svg width="236" height="36" viewBox="0 0 236 36" fill="none" xmlns="http://www.w3.org/2000/svg">
<path fill-rule="evenodd" clip-rule="evenodd" d="M39.3334 17.6204L46 13.7469V6L39.3334 9.87357V17.6204ZM32.6667 13.7469V6L19.3333 13.7469V6L6 13.7469V30H12.6668V17.6204L19.3333 13.7469V30H26.0001V17.6204L32.6667 13.7469Z" fill="#FC4D3D"/>
<path d="M39.3334 17.6204L32.6667 13.7469V30H39.3334V17.6204Z" fill="#FC4D3D"/>
<path d="M124.841 23.7533H122.683V12.2465H124.673L130.843 19.9725V12.2465H133V23.7533H131.01L124.841 16.0437V23.7533Z" fill="#FC4D3D"/>
<path d="M114.614 12C116.376 12 117.83 12.5754 118.978 13.7261C120.149 14.8548 120.734 16.2795 120.734 18C120.734 19.7096 120.149 21.1397 118.978 22.2904C117.819 23.4302 116.365 24 114.614 24C112.887 24 111.432 23.4302 110.251 22.2904C109.091 21.1288 108.511 19.6987 108.511 18C108.511 16.2904 109.091 14.8657 110.251 13.7261C111.421 12.5754 112.876 12 114.614 12ZM111.922 15.2384C111.209 15.9726 110.852 16.8932 110.852 18C110.852 19.1068 111.209 20.0274 111.922 20.7617C112.636 21.4959 113.533 21.863 114.614 21.863C115.695 21.863 116.593 21.4959 117.307 20.7617C118.031 20.0165 118.393 19.0959 118.393 18C118.393 16.9041 118.031 15.9836 117.307 15.2384C116.582 14.4931 115.685 14.1205 114.614 14.1205C113.544 14.1205 112.647 14.4931 111.922 15.2384Z" fill="#FC4D3D"/>
<path d="M100.768 23.7533H96.0198V12.2465H100.768C102.507 12.2465 103.957 12.7999 105.116 13.9068C106.286 15.0136 106.871 16.378 106.871 17.9999C106.871 19.6218 106.286 20.9862 105.116 22.0931C103.957 23.1999 102.507 23.7533 100.768 23.7533ZM100.768 14.2848H98.2605V21.7149H100.768C101.839 21.7149 102.736 21.3588 103.461 20.6465C104.185 19.9122 104.547 19.0301 104.547 17.9999C104.547 16.9478 104.185 16.0656 103.461 15.3533C102.736 14.641 101.839 14.2848 100.768 14.2848Z" fill="#FC4D3D"/>
<path d="M87.8345 19.052L83.3873 12.2465H85.9786L88.938 16.9807L91.9978 12.2465H94.5729L90.0752 18.9862V23.7533H87.8345V19.052Z" fill="#FC4D3D"/>
<path d="M74.6662 23.7533H72.3086L77.3249 12.2465H79.1471L84.1632 23.7533H81.8058L80.8862 21.5835H75.5857L74.6662 23.7533ZM80.0167 19.5615L78.2444 15.3862L76.4553 19.5615H80.0167Z" fill="#FC4D3D"/>
<path d="M60.2405 23.7533H58V12.2465H60.2405L64.4373 19.5122L68.6174 12.2465H70.8579V23.7533H68.6174V16.4218L65.173 22.4547H63.6849L60.2405 16.4382V23.7533Z" fill="#FC4D3D"/>
</svg>
