<svg width="236" height="44" viewBox="0 0 236 44" fill="none" xmlns="http://www.w3.org/2000/svg">
<path d="M29 28H15M17 31H27M16.2 13H27.8C28.9201 13 29.4802 13 29.908 13.218C30.2843 13.4097 30.5903 13.7157 30.782 14.092C31 14.5198 31 15.0799 31 16.2V21.8C31 22.9201 31 23.4802 30.782 23.908C30.5903 24.2843 30.2843 24.5903 29.908 24.782C29.4802 25 28.9201 25 27.8 25H16.2C15.0799 25 14.5198 25 14.092 24.782C13.7157 24.5903 13.4097 24.2843 13.218 23.908C13 23.4802 13 22.9201 13 21.8V16.2C13 15.0799 13 14.5198 13.218 14.092C13.4097 13.7157 13.7157 13.4097 14.092 13.218C14.5198 13 15.0799 13 16.2 13Z" stroke="#19191C" stroke-width="1.5" stroke-linecap="round"/>
<path d="M56.496 28L53.04 18.288H52.976C52.9867 18.5013 53.0027 18.7893 53.024 19.152C53.0453 19.5147 53.0613 19.904 53.072 20.32C53.0827 20.736 53.088 21.1467 53.088 21.552V28H51.52V16.576H53.984L57.264 25.744H57.328L60.704 16.576H63.168V28H61.488V21.456C61.488 21.0827 61.4933 20.6987 61.504 20.304C61.5253 19.8987 61.5413 19.52 61.552 19.168C61.5733 18.816 61.5893 18.528 61.6 18.304H61.536L57.984 28H56.496ZM73.5355 23.68C73.5355 24.3947 73.4395 25.0293 73.2475 25.584C73.0555 26.1387 72.7835 26.608 72.4315 26.992C72.0795 27.376 71.6528 27.6693 71.1515 27.872C70.6502 28.064 70.0848 28.16 69.4555 28.16C68.8795 28.16 68.3462 28.064 67.8555 27.872C67.3648 27.6693 66.9382 27.376 66.5755 26.992C66.2235 26.608 65.9462 26.1387 65.7435 25.584C65.5408 25.0293 65.4395 24.3893 65.4395 23.664C65.4395 22.7147 65.5995 21.9093 65.9195 21.248C66.2502 20.5867 66.7195 20.0853 67.3275 19.744C67.9462 19.392 68.6715 19.216 69.5035 19.216C70.2928 19.216 70.9862 19.392 71.5835 19.744C72.1915 20.0853 72.6662 20.5867 73.0075 21.248C73.3595 21.9093 73.5355 22.72 73.5355 23.68ZM67.1835 23.68C67.1835 24.32 67.2635 24.8747 67.4235 25.344C67.5835 25.8027 67.8342 26.1547 68.1755 26.4C68.5168 26.6453 68.9542 26.768 69.4875 26.768C70.0208 26.768 70.4582 26.6453 70.7995 26.4C71.1408 26.1547 71.3915 25.8027 71.5515 25.344C71.7115 24.8747 71.7915 24.32 71.7915 23.68C71.7915 23.0187 71.7062 22.464 71.5355 22.016C71.3755 21.568 71.1248 21.2267 70.7835 20.992C70.4528 20.7467 70.0155 20.624 69.4715 20.624C68.6715 20.624 68.0902 20.8907 67.7275 21.424C67.3648 21.9573 67.1835 22.7093 67.1835 23.68ZM77.3015 19.376V22.88H81.5575V19.376H83.2535V28H81.5575V24.24H77.3015V28H75.6055V19.376H77.3015ZM87.4384 24.08C87.4384 24.208 87.433 24.3733 87.4224 24.576C87.4117 24.7787 87.401 24.992 87.3904 25.216C87.3797 25.4293 87.3637 25.632 87.3424 25.824C87.3317 26.0053 87.321 26.1493 87.3104 26.256L91.7424 19.376H93.8064V28H92.2064V23.408C92.2064 23.2053 92.2117 22.9547 92.2224 22.656C92.233 22.3573 92.2437 22.0693 92.2544 21.792C92.2757 21.504 92.2917 21.2853 92.3024 21.136L87.9024 28H85.8224V19.376H87.4384V24.08ZM102.703 20.736H99.8866V28H98.2066V20.736H95.4066V19.376H102.703V20.736ZM111.747 23.68C111.747 24.3947 111.651 25.0293 111.459 25.584C111.267 26.1387 110.995 26.608 110.643 26.992C110.291 27.376 109.864 27.6693 109.363 27.872C108.861 28.064 108.296 28.16 107.667 28.16C107.091 28.16 106.557 28.064 106.067 27.872C105.576 27.6693 105.149 27.376 104.787 26.992C104.435 26.608 104.157 26.1387 103.955 25.584C103.752 25.0293 103.651 24.3893 103.651 23.664C103.651 22.7147 103.811 21.9093 104.131 21.248C104.461 20.5867 104.931 20.0853 105.539 19.744C106.157 19.392 106.883 19.216 107.715 19.216C108.504 19.216 109.197 19.392 109.795 19.744C110.403 20.0853 110.877 20.5867 111.219 21.248C111.571 21.9093 111.747 22.72 111.747 23.68ZM105.395 23.68C105.395 24.32 105.475 24.8747 105.635 25.344C105.795 25.8027 106.045 26.1547 106.387 26.4C106.728 26.6453 107.165 26.768 107.699 26.768C108.232 26.768 108.669 26.6453 109.011 26.4C109.352 26.1547 109.603 25.8027 109.763 25.344C109.923 24.8747 110.003 24.32 110.003 23.68C110.003 23.0187 109.917 22.464 109.747 22.016C109.587 21.568 109.336 21.2267 108.995 20.992C108.664 20.7467 108.227 20.624 107.683 20.624C106.883 20.624 106.301 20.8907 105.939 21.424C105.576 21.9573 105.395 22.7093 105.395 23.68ZM118.121 19.216C119.155 19.216 119.987 19.5893 120.617 20.336C121.257 21.0827 121.577 22.1973 121.577 23.68C121.577 24.6507 121.433 25.472 121.145 26.144C120.857 26.816 120.451 27.3227 119.929 27.664C119.406 27.9947 118.798 28.16 118.105 28.16C117.667 28.16 117.283 28.1067 116.953 28C116.622 27.8827 116.339 27.7333 116.105 27.552C115.881 27.36 115.683 27.1573 115.513 26.944H115.401C115.433 27.136 115.459 27.3653 115.481 27.632C115.502 27.888 115.513 28.1173 115.513 28.32V31.84H113.817V19.376H115.193L115.433 20.528H115.513C115.683 20.2933 115.886 20.0747 116.121 19.872C116.355 19.6693 116.638 19.5093 116.969 19.392C117.299 19.2747 117.683 19.216 118.121 19.216ZM117.721 20.608C117.187 20.608 116.761 20.7147 116.441 20.928C116.121 21.1307 115.886 21.44 115.737 21.856C115.598 22.2613 115.523 22.7787 115.513 23.408V23.664C115.513 24.3253 115.582 24.8907 115.721 25.36C115.859 25.8187 116.089 26.1707 116.409 26.416C116.739 26.6507 117.187 26.768 117.753 26.768C118.233 26.768 118.622 26.64 118.921 26.384C119.23 26.1173 119.459 25.7493 119.609 25.28C119.758 24.8107 119.833 24.2667 119.833 23.648C119.833 22.7093 119.662 21.968 119.321 21.424C118.979 20.88 118.446 20.608 117.721 20.608ZM125.275 24.08C125.275 24.208 125.269 24.3733 125.259 24.576C125.248 24.7787 125.237 24.992 125.227 25.216C125.216 25.4293 125.2 25.632 125.179 25.824C125.168 26.0053 125.157 26.1493 125.147 26.256L129.579 19.376H131.643V28H130.043V23.408C130.043 23.2053 130.048 22.9547 130.059 22.656C130.069 22.3573 130.08 22.0693 130.091 21.792C130.112 21.504 130.128 21.2853 130.139 21.136L125.739 28H123.659V19.376H125.275V24.08ZM135.931 19.376V22.88H140.187V19.376H141.883V28H140.187V24.24H135.931V28H134.235V19.376H135.931ZM149.924 19.376V20.736H146.148V28H144.452V19.376H149.924Z" fill="#19191C"/>
</svg>
